<svg xmlns="http://www.w3.org/2000/svg" width="221.059" height="60.506" viewBox="0 0 221.059 60.506">
  <g id="Group_1" data-name="Group 1" transform="translate(-30 -24)">
    <g id="Layer_x0020_1" transform="translate(30 24)">
      <path id="Path_19" data-name="Path 19" d="M10230.845,7201.957a3.369,3.369,0,0,1,1.794.472,2.439,2.439,0,0,1,.983,1.219,4.8,4.8,0,0,1,.3,1.812V7210h4.675v-4.54a11.569,11.569,0,0,0-.182-2.276,4.623,4.623,0,0,0-.637-1.669,3.105,3.105,0,0,0-1.267-1.077,5.7,5.7,0,0,0-2.038-.505v-.134a6.368,6.368,0,0,0,2.029-.605,3.625,3.625,0,0,0,1.268-1.031,4.02,4.02,0,0,0,.683-1.423,8.18,8.18,0,0,0,.277-1.757c.047-.628.064-1.314.055-2.029a11.923,11.923,0,0,0-.4-3.449,4.906,4.906,0,0,0-1.282-2.219,5.147,5.147,0,0,0-2.283-1.2,14.524,14.524,0,0,0-3.392-.425H10219v24.329h4.676v-8.044h7.169Zm-7.169-3.991v-8.3h6.483a10.178,10.178,0,0,1,2.029.149,2.231,2.231,0,0,1,1.2.583,2.3,2.3,0,0,1,.576,1.235,11.665,11.665,0,0,1,.148,2.086,9.531,9.531,0,0,1-.181,2.164,2.606,2.606,0,0,1-.66,1.292,2.709,2.709,0,0,1-1.313.629,11.278,11.278,0,0,1-2.118.165h-6.169Zm23.647-12.292h-4.674V7210h4.674Zm3.283,16.575v1.133a10.336,10.336,0,0,0,.377,2.928,5.186,5.186,0,0,0,1.063,1.944,4.828,4.828,0,0,0,1.629,1.156,8.8,8.8,0,0,0,2.079.576,19.352,19.352,0,0,0,2.408.2c.849.023,1.715.023,2.62.023,1.251.007,2.385-.032,3.394-.109a11.277,11.277,0,0,0,2.653-.529,4.723,4.723,0,0,0,1.911-1.211,5.112,5.112,0,0,0,1.147-2.172,12.563,12.563,0,0,0,.386-3.4,13.8,13.8,0,0,0-.268-3.062,4.4,4.4,0,0,0-.928-1.959,4.055,4.055,0,0,0-1.738-1.133,12.567,12.567,0,0,0-2.725-.574c-1.086-.126-2.378-.236-3.871-.315-.945-.055-1.74-.11-2.377-.181a8.47,8.47,0,0,1-1.56-.275,2.02,2.02,0,0,1-.9-.526,1.86,1.86,0,0,1-.418-.921,7.2,7.2,0,0,1-.1-1.472,4.914,4.914,0,0,1,.189-1.574,1.644,1.644,0,0,1,.764-.929,4.388,4.388,0,0,1,1.629-.441,27.244,27.244,0,0,1,2.8-.109c.818-.008,1.5.007,2.063.054a3.568,3.568,0,0,1,1.337.324,1.483,1.483,0,0,1,.734.81,4.3,4.3,0,0,1,.22,1.534v.779h4.666v-.779a9.45,9.45,0,0,0-.456-3.132,4.449,4.449,0,0,0-1.284-1.927,5.077,5.077,0,0,0-1.951-1.024,11.8,11.8,0,0,0-2.479-.4c-.9-.047-1.851-.078-2.842-.063-1.172-.007-2.267.017-3.289.078a13.043,13.043,0,0,0-2.771.425,5.423,5.423,0,0,0-2.132,1.072,4.631,4.631,0,0,0-1.377,2.03,9.575,9.575,0,0,0-.488,3.281,11.673,11.673,0,0,0,.33,2.967,5.4,5.4,0,0,0,.943,1.968,4.455,4.455,0,0,0,1.464,1.2,7.248,7.248,0,0,0,1.9.631,20.713,20.713,0,0,0,2.251.284c.8.063,1.646.11,2.518.157.724.03,1.386.063,1.969.079a10.174,10.174,0,0,1,1.527.141,2.8,2.8,0,0,1,1.1.426,1.859,1.859,0,0,1,.661.921,4.964,4.964,0,0,1,.22,1.644,7.115,7.115,0,0,1-.157,1.755,1.967,1.967,0,0,1-.661,1.109,3.232,3.232,0,0,1-1.463.575,14.944,14.944,0,0,1-2.551.167c-1.077.007-1.968-.017-2.683-.079a5.048,5.048,0,0,1-1.692-.37,1.729,1.729,0,0,1-.89-.9,4.186,4.186,0,0,1-.254-1.646v-1.133h-4.673Zm43.633-16.575h-4.675v9.956h-11.317v-9.956h-4.675V7210h4.675v-10.38h11.317V7210h4.675Zm18.983,19.723,1.588,4.6h4.74l-8.241-24.326h-6.878l-8.076,24.326h4.833l1.528-4.6Zm-1.039-3.535h-8.4l4.156-12.615h.063l4.187,12.615Zm14.079-2.463h7.17a6.383,6.383,0,0,1,1.685.166,1.985,1.985,0,0,1,1.015.56,2.184,2.184,0,0,1,.5,1.062,7.877,7.877,0,0,1,.135,1.662,4.859,4.859,0,0,1-.253,1.755,1.836,1.836,0,0,1-.765.951,3.073,3.073,0,0,1-1.289.394,15.5,15.5,0,0,1-1.818.079h-6.39v-6.618Zm7.848,10.61a15.047,15.047,0,0,0,3.3-.3,5.1,5.1,0,0,0,2.281-1.071,4.5,4.5,0,0,0,1.324-2.076,11.1,11.1,0,0,0,.424-3.33,12.107,12.107,0,0,0-.155-2.134,5.06,5.06,0,0,0-.6-1.732,3.37,3.37,0,0,0-1.237-1.219,5.2,5.2,0,0,0-2.069-.622v-.126a5.3,5.3,0,0,0,1.786-.748,3.362,3.362,0,0,0,1.055-1.166,4.989,4.989,0,0,0,.5-1.55,12.077,12.077,0,0,0,.125-1.921,9.826,9.826,0,0,0-.449-3.249,3.966,3.966,0,0,0-1.346-1.92,5.236,5.236,0,0,0-2.243-.921,16.119,16.119,0,0,0-3.131-.237h-12.1v24.327h12.521Zm-7.848-20.336h6.588a10.781,10.781,0,0,1,1.5.071,2.351,2.351,0,0,1,1.048.354,1.587,1.587,0,0,1,.6.841,4.7,4.7,0,0,1,.2,1.527,6.3,6.3,0,0,1-.251,2.039,1.775,1.775,0,0,1-.962,1.063,4.853,4.853,0,0,1-2,.306h-6.713v-6.194Zm39.351-3.991h-4.673v9.956h-11.317v-9.956h-4.676v24.327h4.676v-10.38h11.317v10.38h4.673Z" transform="translate(-10144.555 -7178.732)" fill="#fff"/>
      <path id="Path_20" data-name="Path 20" d="M10208,10878.414v.788a6.7,6.7,0,0,0,.262,2.028,3.421,3.421,0,0,0,.738,1.347,3.274,3.274,0,0,0,1.134.8,5.372,5.372,0,0,0,1.438.395,12.283,12.283,0,0,0,1.679.134c.588.014,1.2.014,1.816.014.873,0,1.653-.021,2.354-.077a7.524,7.524,0,0,0,1.84-.371,3.4,3.4,0,0,0,1.331-.842,3.5,3.5,0,0,0,.793-1.508,8.678,8.678,0,0,0,.27-2.364,9.351,9.351,0,0,0-.19-2.124,3.037,3.037,0,0,0-.645-1.354,2.966,2.966,0,0,0-1.2-.788,8.243,8.243,0,0,0-1.89-.392c-.759-.088-1.656-.156-2.686-.221-.652-.042-1.2-.081-1.646-.127a5.811,5.811,0,0,1-1.076-.188,1.362,1.362,0,0,1-.629-.371,1.309,1.309,0,0,1-.292-.636,4.721,4.721,0,0,1-.072-1.025,3.338,3.338,0,0,1,.135-1.093,1.172,1.172,0,0,1,.526-.644,2.957,2.957,0,0,1,1.135-.307,18.1,18.1,0,0,1,1.943-.077c.566,0,1.041,0,1.435.037a2.276,2.276,0,0,1,.927.229,1.03,1.03,0,0,1,.5.555,2.868,2.868,0,0,1,.147,1.065v.54h3.246v-.54a6.288,6.288,0,0,0-.324-2.175,3.17,3.17,0,0,0-.89-1.336,3.638,3.638,0,0,0-1.354-.709,7.528,7.528,0,0,0-1.715-.273c-.623-.035-1.282-.059-1.976-.05-.81-.009-1.575.008-2.28.056a9.112,9.112,0,0,0-1.923.29,3.814,3.814,0,0,0-1.478.738,3.272,3.272,0,0,0-.955,1.411,6.849,6.849,0,0,0-.337,2.274,8.133,8.133,0,0,0,.227,2.063,3.767,3.767,0,0,0,.655,1.363,3.092,3.092,0,0,0,1.016.826,5.066,5.066,0,0,0,1.313.438,14.339,14.339,0,0,0,1.565.2c.559.039,1.143.077,1.748.106.5.024.961.039,1.361.058a7.542,7.542,0,0,1,1.063.095,1.921,1.921,0,0,1,.763.289,1.266,1.266,0,0,1,.456.639,3.367,3.367,0,0,1,.159,1.143,4.931,4.931,0,0,1-.111,1.211,1.39,1.39,0,0,1-.464.77,2.171,2.171,0,0,1-1.016.4,10.813,10.813,0,0,1-1.763.116,17.254,17.254,0,0,1-1.857-.056,3.616,3.616,0,0,1-1.174-.253,1.145,1.145,0,0,1-.612-.621,2.915,2.915,0,0,1-.176-1.141v-.785h-3.24Zm25.241-11.634a22.1,22.1,0,0,0-2.8.145,6.89,6.89,0,0,0-2.024.519,3.39,3.39,0,0,0-1.344,1.069,4.638,4.638,0,0,0-.74,1.778,12.26,12.26,0,0,0-.229,2.652v4.547a13.99,13.99,0,0,0,.237,2.8,4.771,4.771,0,0,0,.77,1.864,3.438,3.438,0,0,0,1.354,1.109,6.82,6.82,0,0,0,2.024.537,23.389,23.389,0,0,0,2.745.143,21.44,21.44,0,0,0,2.715-.15,6.791,6.791,0,0,0,2.032-.559,3.635,3.635,0,0,0,1.391-1.124,4.721,4.721,0,0,0,.8-1.857,12.38,12.38,0,0,0,.258-2.739v-4.55a11.069,11.069,0,0,0-.281-2.725,4.372,4.372,0,0,0-.857-1.785,3.7,3.7,0,0,0-1.432-1.046,7.3,7.3,0,0,0-2.024-.49,23.3,23.3,0,0,0-2.612-.117Zm0,2.773c.573,0,1.084.006,1.525.046a3.756,3.756,0,0,1,1.135.237,1.752,1.752,0,0,1,.763.551,2.293,2.293,0,0,1,.424,1,6.849,6.849,0,0,1,.109,1.572v4.55a8.734,8.734,0,0,1-.124,1.636,2.78,2.78,0,0,1-.417,1.063,1.792,1.792,0,0,1-.747.613,3.669,3.669,0,0,1-1.12.283,14.521,14.521,0,0,1-1.54.071c-.646,0-1.2-.017-1.653-.062a3.564,3.564,0,0,1-1.127-.268,1.486,1.486,0,0,1-.683-.608,2.736,2.736,0,0,1-.348-1.069,12.3,12.3,0,0,1-.095-1.668v-4.549a11.5,11.5,0,0,1,.095-1.385,2.858,2.858,0,0,1,.3-.97,1.612,1.612,0,0,1,.646-.619,3.223,3.223,0,0,1,1.124-.323,11.344,11.344,0,0,1,1.741-.1Zm15.448.131h7.918v-2.771h-11.162v16.875h3.244v-6.974h7.517v-2.652h-7.517Zm19.611,0h4.951v-2.771h-13.142v2.771h4.949v14.112h3.241Zm26.029,11.452h-.07l-3.779-14.223h-3.74l-3.872,14.223h-.085l-3.51-14.223h-3.244l4.394,16.875h4.635l3.484-12.876h.088l3.376,12.876h4.686l4.547-16.875h-3.266Zm20.872-.542,1.1,3.194h3.283l-5.715-16.875h-4.769l-5.605,16.875h3.354l1.054-3.194h7.3Zm-.725-2.456h-5.832l2.879-8.754h.049Zm17.457.073a2.318,2.318,0,0,1,1.241.319,1.765,1.765,0,0,1,.687.851,3.48,3.48,0,0,1,.211,1.261v3.146h3.244v-3.146a8.431,8.431,0,0,0-.127-1.576,3.242,3.242,0,0,0-.441-1.157,2.175,2.175,0,0,0-.873-.748,4.054,4.054,0,0,0-1.416-.346v-.086a4.681,4.681,0,0,0,1.409-.417,2.461,2.461,0,0,0,.872-.717,2.851,2.851,0,0,0,.479-.982,5.607,5.607,0,0,0,.193-1.213c.028-.44.036-.913.036-1.41a8.66,8.66,0,0,0-.274-2.391,3.385,3.385,0,0,0-.89-1.541,3.529,3.529,0,0,0-1.581-.834,9.715,9.715,0,0,0-2.354-.292h-8.619v16.873h3.244v-5.581h4.974Zm-4.977-2.772v-5.759h4.5a7.952,7.952,0,0,1,1.41.1,1.553,1.553,0,0,1,.835.4,1.619,1.619,0,0,1,.4.857,8.221,8.221,0,0,1,.1,1.447,7.022,7.022,0,0,1-.127,1.5,1.692,1.692,0,0,1-.464.9,1.8,1.8,0,0,1-.912.432,7.122,7.122,0,0,1-1.471.108h-4.276Zm18.961-5.759h8.327v-2.772h-11.571v16.872h11.634v-2.769h-8.39v-4.479h7.9v-2.651h-7.9v-4.2Z" transform="translate(-10133.643 -10831.035)" fill="#fff" opacity="0.88"/>
      <g id="Group_199" data-name="Group 199" transform="translate(0 0)">
        <path id="Subtraction_1" data-name="Subtraction 1" d="M30.253,60.506A30.261,30.261,0,0,1,18.477,2.377,30.3,30.3,0,0,1,47.5,5.392,30.349,30.349,0,0,1,58.435,19.226h-.006c-.19-.008-.377-.012-.555-.012a10.061,10.061,0,0,0-1.043.052,7.681,7.681,0,0,1-.38-.956c-.057-.156-.1-.278-.116-.311-1.654-4.035-5.5-5.617-8.429-6.233A10.877,10.877,0,0,1,51.652,14.2a12.6,12.6,0,0,1,3.212,6.87c.017.131.036.261.054.391.054.386.11.785.134,1.176a6.624,6.624,0,0,1,3.982-1.716h.005A30.243,30.243,0,0,1,30.253,60.506Zm7.99-26.784.013,0a26.987,26.987,0,0,1,5.408,2.516,21.7,21.7,0,0,1,4.3,3.471,13.163,13.163,0,0,1,1.9,2.5,19.848,19.848,0,0,1,1.952,6.453c.012-.39.035-.785.058-1.168.039-.66.08-1.342.06-2.02a27.685,27.685,0,0,0-.331-3.415,11.826,11.826,0,0,0-2.685-5.9,10.948,10.948,0,0,0-2.62-2.308c-.283-.156-.588-.3-.884-.447-.374-.181-.761-.369-1.092-.568a15.455,15.455,0,0,0,2.054-10.011,13.62,13.62,0,0,0-3.345-7.248,17.486,17.486,0,0,0-5.4-3.817h0a13.491,13.491,0,0,1,2.779,3.092A12.525,12.525,0,0,1,42.2,19.5a20.644,20.644,0,0,1-.025,7.813c-.626,2.973-1.986,5.189-3.932,6.407ZM26.515,35.991h0a5.1,5.1,0,0,1,2.722.716,3.724,3.724,0,0,1,1.487,1.849,7.256,7.256,0,0,1,.457,2.747v6.886h7.083V41.3A17.855,17.855,0,0,0,38,37.863a6.942,6.942,0,0,0-.968-2.526,4.627,4.627,0,0,0-1.921-1.629,8.722,8.722,0,0,0-3.093-.763v-.2a9.671,9.671,0,0,0,3.086-.921,5.572,5.572,0,0,0,1.92-1.566A6.337,6.337,0,0,0,38.06,28.1a12.824,12.824,0,0,0,.417-2.652c.06-.927.087-1.965.079-3.085a18.712,18.712,0,0,0-.606-5.226A7.488,7.488,0,0,0,36,13.773a7.91,7.91,0,0,0-3.455-1.826,21.556,21.556,0,0,0-5.147-.637H8.562v36.88h7.083V36H26.515v-.006ZM49.38,30.544c.4,0,.809.028,1.2.056.162.011.316.022.464.03a20.463,20.463,0,0,1,7.838,2,14.29,14.29,0,0,1,1.441.873l.007.008c.062-.613.11-1.254.142-1.9l-.008-.007a15.718,15.718,0,0,0-5.194-3.684,20.062,20.062,0,0,0-2.893-.9c-.05,0-.078.01-.083.029a21.673,21.673,0,0,0,.331-4.218,11.446,11.446,0,0,0-3.134-7.176,16.38,16.38,0,0,0-6.971-3.976,11.44,11.44,0,0,1,4.21,3.652,15,15,0,0,1,2.5,6.351,13.224,13.224,0,0,1,.134,1.849v.251a21.339,21.339,0,0,1-.174,3.361c-.1.634-.226,1.246-.361,1.818-.077.331-.155.633-.237.921a2.663,2.663,0,0,1-.259.763A4.868,4.868,0,0,1,49.38,30.544Zm-24.225-.6h-9.51V17.362H25.674a14.461,14.461,0,0,1,2.887.229,3.392,3.392,0,0,1,1.825.881,3.582,3.582,0,0,1,.874,1.866,16.56,16.56,0,0,1,.22,3.163,14.6,14.6,0,0,1-.275,3.29A3.835,3.835,0,0,1,30.2,28.75a4.006,4.006,0,0,1-1.991.952A15.739,15.739,0,0,1,25.155,29.947Z" transform="translate(0 0)" fill="#fff"/>
        <path id="Path_24" data-name="Path 24" d="M8185,8771c4.211.237,8.814,2.777,8.814,2.777a19.481,19.481,0,0,0-8.208-1.087C8185.418,8772.117,8185.221,8771.559,8185,8771Zm2.038,12.372a12.2,12.2,0,0,1,2.778,4.762,5.6,5.6,0,0,0-1.748-1.958,14,14,0,0,0-1.172-.891Q8187,8784.339,8187.039,8783.372Z" transform="translate(-8126.563 -8751.772)" fill="#fff" fill-rule="evenodd"/>
      </g>
    </g>
  </g>
</svg>
