<svg xmlns="http://www.w3.org/2000/svg" xmlns:xlink="http://www.w3.org/1999/xlink" width="114" height="114" viewBox="0 0 114 114">
  <defs>
    <clipPath id="clip-path">
      <circle id="Ellipse_115" data-name="Ellipse 115" cx="57" cy="57" r="57" transform="translate(-8243 743)" fill="#fff"/>
    </clipPath>
    <filter id="Ellipse_1" x="-45" y="-39" width="204" height="204" filterUnits="userSpaceOnUse">
      <feOffset dy="6" input="SourceAlpha"/>
      <feGaussianBlur stdDeviation="15" result="blur"/>
      <feFlood flood-opacity="0.059"/>
      <feComposite operator="in" in2="blur"/>
      <feComposite in="SourceGraphic"/>
    </filter>
  </defs>
  <g id="logo-sm" transform="translate(8243 -743)">
    <g id="Mask_Group_24" data-name="Mask Group 24" clip-path="url(#clip-path)">
      <g id="Group_7152" data-name="Group 7152" transform="translate(-8373 470)">
        <g transform="matrix(1, 0, 0, 1, 130, 273)" filter="url(#Ellipse_1)">
          <circle id="Ellipse_1-2" data-name="Ellipse 1" cx="57" cy="57" r="57" fill="#fff"/>
        </g>
        <g id="Group_199" data-name="Group 199" transform="translate(155.35 297.644)">
          <path id="Subtraction_1" data-name="Subtraction 1" d="M32.832,65.17A32.565,32.565,0,0,1,20.053,2.561a32.952,32.952,0,0,1,38.524,9.8,32.456,32.456,0,0,1,4.84,8.35H63.41C63.2,20.7,63,20.7,62.81,20.7a11,11,0,0,0-1.131.056,8.236,8.236,0,0,1-.412-1.03c-.062-.168-.11-.3-.126-.334-1.795-4.346-5.965-6.05-9.148-6.713A11.812,11.812,0,0,1,56.059,15.3a13.531,13.531,0,0,1,3.485,7.4c.019.141.039.281.058.421.059.416.12.846.145,1.267a7.215,7.215,0,0,1,4.322-1.849h.006a32.4,32.4,0,0,1-8.024,33.1A32.856,32.856,0,0,1,32.832,65.17ZM41.5,36.322h.014a29.4,29.4,0,0,1,5.869,2.71,23.52,23.52,0,0,1,4.672,3.738,14.189,14.189,0,0,1,2.059,2.688,21.26,21.26,0,0,1,2.119,6.95c.012-.42.038-.846.063-1.258.043-.711.087-1.446.065-2.176A29.6,29.6,0,0,0,56,45.3a12.693,12.693,0,0,0-2.914-6.357,11.856,11.856,0,0,0-2.843-2.485c-.307-.168-.639-.327-.959-.481-.406-.2-.825-.4-1.185-.611a16.543,16.543,0,0,0,2.229-10.783,14.62,14.62,0,0,0-3.63-7.807,18.982,18.982,0,0,0-5.858-4.111h0A14.57,14.57,0,0,1,43.859,16,13.428,13.428,0,0,1,45.8,21.01a22.071,22.071,0,0,1-.028,8.415c-.68,3.2-2.155,5.589-4.267,6.9ZM28.775,38.765h0a5.565,5.565,0,0,1,2.954.771,4.018,4.018,0,0,1,1.614,1.992,7.763,7.763,0,0,1,.5,2.959V51.9H41.53V44.487a19.089,19.089,0,0,0-.29-3.7,7.443,7.443,0,0,0-1.051-2.721A5.011,5.011,0,0,0,38.1,36.307a9.523,9.523,0,0,0-3.356-.822v-.213a10.554,10.554,0,0,0,3.349-.992,6.037,6.037,0,0,0,2.084-1.687A6.8,6.8,0,0,0,41.3,30.27a13.717,13.717,0,0,0,.453-2.857c.066-1,.094-2.117.085-3.323a20.011,20.011,0,0,0-.658-5.628,8.052,8.052,0,0,0-2.119-3.629,8.605,8.605,0,0,0-3.749-1.967,23.561,23.561,0,0,0-5.586-.686H9.292V51.9h7.687V38.773h11.8v-.007ZM53.59,32.9c.437,0,.878.031,1.3.06.175.012.343.024.5.033a22.347,22.347,0,0,1,8.51,2.152,15.529,15.529,0,0,1,1.564.941l.008.009c.067-.66.12-1.351.154-2.052l-.009-.008a17.057,17.057,0,0,0-5.637-3.968,21.892,21.892,0,0,0-3.139-.973c-.054,0-.084.011-.09.031a23.171,23.171,0,0,0,.359-4.543,12.285,12.285,0,0,0-3.4-7.729,17.808,17.808,0,0,0-7.566-4.283,12.388,12.388,0,0,1,4.573,3.93,16.084,16.084,0,0,1,2.717,6.84,14.137,14.137,0,0,1,.146,1.992V25.6a22.813,22.813,0,0,1-.189,3.62c-.113.683-.245,1.342-.392,1.958-.084.357-.168.681-.257.992A2.853,2.853,0,0,1,52.46,33,5.322,5.322,0,0,1,53.59,32.9ZM27.3,32.255H16.979V18.7H27.863A15.81,15.81,0,0,1,31,18.945a3.692,3.692,0,0,1,1.981.949A3.846,3.846,0,0,1,33.93,21.9a17.7,17.7,0,0,1,.239,3.407,15.614,15.614,0,0,1-.3,3.544,4.12,4.12,0,0,1-1.093,2.111,4.361,4.361,0,0,1-2.16,1.025A17.207,17.207,0,0,1,27.3,32.255Z" fill="#00205c"/>
          <path id="Path_24" data-name="Path 24" d="M8184.87,8770.52c4.227.235,8.847,2.786,8.847,2.786a19.492,19.492,0,0,0-8.239-1.09C8185.29,8771.64,8185.09,8771.08,8184.87,8770.52Zm2.144,13.318a12.26,12.26,0,0,1,2.786,4.779,5.635,5.635,0,0,0-1.753-1.965q-.565-.476-1.176-.895c.069-.628.109-1.268.139-1.918Z" transform="translate(-8121.42 -8749.762)" fill="#00205c" fill-rule="evenodd"/>
        </g>
      </g>
    </g>
  </g>
</svg>
