<svg xmlns="http://www.w3.org/2000/svg" xmlns:xlink="http://www.w3.org/1999/xlink" width="273.136" height="126.668" viewBox="0 0 273.136 126.668">
  <defs>
    <clipPath id="clip-path">
      <rect id="Rectangle_422" data-name="Rectangle 422" width="273.136" height="126.668" fill="none"/>
    </clipPath>
  </defs>
  <g id="R-360Lite" transform="translate(0 0)">
    <g id="Group_521" data-name="Group 521" transform="translate(0 0)" clip-path="url(#clip-path)">
      <path id="Path_2862" data-name="Path 2862" d="M108.923,84.776a22.039,22.039,0,0,0,4.354-8.277,33.649,33.649,0,0,0,2.621,2.812,11.025,11.025,0,1,0-3.838-10.072c-.273,1.923-.229,3.9-.6,5.8A19.715,19.715,0,0,1,79.243,85.817c-.378-.317-.727-.665-1.144-1.049a22.224,22.224,0,0,0,4.392-8.5,11.664,11.664,0,0,0,4.567,4.4A11.046,11.046,0,0,0,103.23,70.9c.2-7.959,3.78-13.954,10.829-17.631A19.75,19.75,0,1,1,125.936,90.4c-6.5,1-12.158-1-17.014-5.621" transform="translate(44.31 28.98)" fill="#b34138"/>
      <path id="Path_2863" data-name="Path 2863" d="M54.725,75.918h8.66c.138.854.23,1.686.412,2.5a11.027,11.027,0,0,0,21.7-1.185c.279-2.567.194-5.21,1.227-7.627a27.842,27.842,0,0,1,2.8-5.384c5.116-7.1,10.368-14.106,15.547-21.164a1.7,1.7,0,0,1,1.586-.784c2.909.041,5.82.016,8.729.016h1.172c-3.45,4.688-6.776,9.205-10.183,13.834A19.842,19.842,0,0,1,119.495,62a22.341,22.341,0,0,0-4.371,8.445c-.29-.4-.5-.687-.7-.975a11.018,11.018,0,0,0-19.9,4.769,66.274,66.274,0,0,1-.9,6.724,19.763,19.763,0,0,1-38.659-2.21c-.141-.908-.158-1.835-.24-2.838" transform="translate(31.049 23.984)" fill="#1d2749"/>
      <path id="Path_2864" data-name="Path 2864" d="M57.739,51.136c.649-.882,1.143-1.552,1.636-2.223,1.5-2.038,2.984-4.085,4.511-6.1a1.328,1.328,0,0,1,.9-.508q14.181-.038,28.366-.017c.107,0,.213.022.48.05L81.991,58.164l5.2,3.9a22.561,22.561,0,0,0-4.428,8.862c-.213-.334-.345-.542-.478-.749a10.763,10.763,0,0,0-9.363-5.282c-2.177-.028-4.356-.006-6.784-.006,3.412-4.639,6.715-9.131,10.111-13.749Z" transform="translate(32.759 23.991)" fill="#1d2749"/>
      <path id="Path_2865" data-name="Path 2865" d="M38.585,31.579A38.586,38.586,0,1,1,0,70.164,38.586,38.586,0,0,1,38.585,31.579" transform="translate(0 17.917)" fill="#1d2749" fill-rule="evenodd"/>
      <path id="Path_2866" data-name="Path 2866" d="M29.864,72.262a6.461,6.461,0,0,1,3.473.912,4.765,4.765,0,0,1,1.9,2.359,9.219,9.219,0,0,1,.581,3.5V87.82h9.034V79.037a22.768,22.768,0,0,0-.342-4.385,8.781,8.781,0,0,0-1.234-3.222,5.943,5.943,0,0,0-2.45-2.078,11.166,11.166,0,0,0-3.945-.973v-.251a12.45,12.45,0,0,0,3.936-1.174,7.1,7.1,0,0,0,2.448-2A8.066,8.066,0,0,0,44.591,62.2a16.4,16.4,0,0,0,.531-3.382c.08-1.224.11-2.539.1-3.934a23.861,23.861,0,0,0-.773-6.666,9.5,9.5,0,0,0-2.489-4.3A10.08,10.08,0,0,0,37.553,41.6a27.4,27.4,0,0,0-6.564-.813H6.968V87.82H16V72.272H29.864ZM16,64.553V48.5H28.549a19.424,19.424,0,0,1,3.926.292A4.344,4.344,0,0,1,34.8,49.917,4.553,4.553,0,0,1,35.917,52.3a21.35,21.35,0,0,1,.282,4.036,18.677,18.677,0,0,1-.353,4.2,4.9,4.9,0,0,1-1.284,2.5,5.1,5.1,0,0,1-2.541,1.213,20.418,20.418,0,0,1-4.1.312H16Z" transform="translate(3.953 23.139)" fill="#fff"/>
      <path id="Path_2867" data-name="Path 2867" d="M57.156,50.713c.281.713.531,1.425.773,2.158h-.009a8.5,8.5,0,0,0-5.08,2.188c-.041-.663-.15-1.324-.241-2A16.084,16.084,0,0,0,48.5,44.3a13.964,13.964,0,0,0-4.777-3.1c4.677.983,8.884,3.392,10.751,7.95.06.139.581,1.625.632,1.616a13.748,13.748,0,0,1,2.039-.05Zm2.6,15.779c-.041.824-.1,1.636-.182,2.44l-.009-.011a18.681,18.681,0,0,0-1.837-1.114,25.638,25.638,0,0,0-6.414-2.118,25.123,25.123,0,0,0-3.585-.431,13.685,13.685,0,0,0-3.453.009c.1-.02.3-.843.332-.973q.165-.588.3-1.174c.18-.763.331-1.536.461-2.32a29.277,29.277,0,0,0,.221-4.606,16.7,16.7,0,0,0-.171-2.359,19.136,19.136,0,0,0-3.191-8.1,14.657,14.657,0,0,0-5.371-4.657C44.126,43.4,49.005,47.531,49.748,55.3a27.959,27.959,0,0,1-.422,5.379c.069-.271,3.574,1.025,3.793,1.114a20.132,20.132,0,0,1,6.625,4.7l.011.011ZM34.169,45.132a17.409,17.409,0,0,0-3.544-3.945,22.17,22.17,0,0,1,6.887,4.868A17.325,17.325,0,0,1,41.777,55.3a19.8,19.8,0,0,1-2.619,12.768c.752.451,1.7.843,2.519,1.295a15.221,15.221,0,0,1,6.766,10.47,35.23,35.23,0,0,1,.422,4.356c.041,1.365-.11,2.712-.15,4.066a25.118,25.118,0,0,0-2.489-8.23,16.96,16.96,0,0,0-2.42-3.183,27.8,27.8,0,0,0-5.49-4.426A33.759,33.759,0,0,0,31.4,69.2c5.531-3.464,6.164-12.287,5.05-18.139a15.808,15.808,0,0,0-2.279-5.932" transform="translate(17.375 23.306)" fill="#fff" fill-rule="evenodd"/>
      <path id="Path_2868" data-name="Path 2868" d="M47.552,47.225c5.371.3,11.243,3.544,11.243,3.544a24.883,24.883,0,0,0-10.47-1.386c-.24-.732-.491-1.445-.773-2.158m2.6,15.78A15.588,15.588,0,0,1,53.7,69.079a7.17,7.17,0,0,0-2.229-2.5c-.472-.4-.973-.773-1.5-1.135q.134-1.2.18-2.439" transform="translate(26.979 26.794)" fill="#1d2749" fill-rule="evenodd"/>
      <path id="Path_2869" data-name="Path 2869" d="M110.111,75.031a16.814,16.814,0,0,1-4.729-1.73,11.076,11.076,0,0,1-3.108-2.553,8.555,8.555,0,0,1-1.643-3.086,10.163,10.163,0,0,1-.378-3.329,11.014,11.014,0,0,1,.777-3.553,11.983,11.983,0,0,1,1.842-3.152,10.361,10.361,0,0,1,3.575-2.6,10.015,10.015,0,0,1,4.061-.911,9.032,9.032,0,0,1,2.752.423,7.232,7.232,0,0,1,2.376,1.265,6.675,6.675,0,0,1,1.708,2.108,7.484,7.484,0,0,1,.8,2.909,7.682,7.682,0,0,1-.622,3.108,13.813,13.813,0,0,1,3.574-1.843,23.913,23.913,0,0,1,4.373-1.044,52.975,52.975,0,0,0,2.464-5.548q1.133-2.976,2.088-5.975t1.73-5.863q.778-2.866,1.4-5.219c.058-.149.111-.3.155-.445s.082-.3.111-.445a10.908,10.908,0,0,1-2.088.5,15.742,15.742,0,0,1-2.086.135,17.361,17.361,0,0,1-2.353-.155c-.771-.1-1.509-.229-2.221-.376a13.365,13.365,0,0,1-5.393-2.465,15.023,15.023,0,0,1-3.663-4.106,16.986,16.986,0,0,1-2.042-5.149,21.449,21.449,0,0,1-.489-5.683,20.549,20.549,0,0,1,1.088-5.727,19.346,19.346,0,0,1,2.6-5.083,15.492,15.492,0,0,1,3.951-3.842,13.1,13.1,0,0,1,5.2-2.042,4.374,4.374,0,0,1,.821-.111c.31-.014.583-.022.82-.022a9.364,9.364,0,0,1,4.285.955,10.163,10.163,0,0,1,3.152,2.42,9.436,9.436,0,0,1,1.843,3.2,6.577,6.577,0,0,1,.31,3.241q-.489,1.065-.933,1.042a1.279,1.279,0,0,1-.843-.422,8.682,8.682,0,0,0-.422-2.619,5.936,5.936,0,0,0-.933-1.754,4.041,4.041,0,0,0-1.154-1.022,4.726,4.726,0,0,0-1.133-.466,8.616,8.616,0,0,0-1.509-.133,7.439,7.439,0,0,0-4.24,1.263,11.537,11.537,0,0,0-3.219,3.28,17.424,17.424,0,0,0-2.108,4.588,21.654,21.654,0,0,0-.911,5.186,20.1,20.1,0,0,0,.111,3.412,15.651,15.651,0,0,0,.71,3.191,12.364,12.364,0,0,0,1.31,2.749,7.443,7.443,0,0,0,1.909,2.039,9.931,9.931,0,0,0,2.663,1.395,9.382,9.382,0,0,0,3.108.511,9.917,9.917,0,0,0,2.42-.332,21.446,21.446,0,0,0,2.553-.821l1.42-4.965q1.11-4.168,2.353-8.381t2.754-7.915a39.449,39.449,0,0,1,3.375-6.584A15.142,15.142,0,0,1,148.692,2a15.133,15.133,0,0,1,3.375-1.44A12.866,12.866,0,0,1,155.751,0,8.073,8.073,0,0,1,159.7.976a5.008,5.008,0,0,1,2.4,3.241,10.125,10.125,0,0,1,.266,2.752,17.631,17.631,0,0,1-1.066,4.795,36.922,36.922,0,0,1-2.442,5.373,54.4,54.4,0,0,1-3.44,5.461,60.681,60.681,0,0,1-4.041,5.083,47.666,47.666,0,0,1-4.24,4.241,22.917,22.917,0,0,1-4,2.886l-1.287,5.238q-.623,2.353-1.288,4.973T139.1,50.325q-.8,2.687-1.776,5.393a51.549,51.549,0,0,1-2.219,5.24,32.866,32.866,0,0,1,5.749.933q2.774.71,5.749,1.643a58.761,58.761,0,0,1,9.014,3.729,43.312,43.312,0,0,1,7.569,4.884,23.474,23.474,0,0,1,5.15,5.683A10.364,10.364,0,0,1,170.046,84q-.045.4-.088.867a5.842,5.842,0,0,1-.133.821,3.675,3.675,0,0,1-.4.887,6.787,6.787,0,0,1-.755,1.042,4.983,4.983,0,0,1-.931.845,1.079,1.079,0,0,1-.843.245.678.678,0,0,1-.445-.356,1.509,1.509,0,0,1-.155-.577,2.848,2.848,0,0,1,.022-.622,1.617,1.617,0,0,1,.133-.487,5.307,5.307,0,0,0-.887-3.13,16.106,16.106,0,0,0-2.643-3.154,29.706,29.706,0,0,0-3.884-3.063q-2.222-1.488-4.617-2.842t-4.84-2.531q-2.44-1.176-4.572-2.086t-3.8-1.531q-1.665-.623-2.509-.843-.844-.313-1.464-.489c-.415-.118-.8-.215-1.155-.288s-.7-.133-1.02-.177-.682-.1-1.066-.155a6.955,6.955,0,0,0-.821-.133c-.282-.03-.6-.075-.955-.133a22.913,22.913,0,0,1-3.818,3.729,27.383,27.383,0,0,1-4.639,2.907,26.762,26.762,0,0,1-5.061,1.909,19.951,19.951,0,0,1-5.128.688q-.889,0-1.754-.066a13.226,13.226,0,0,1-1.708-.245m2.707-6.182q.534-.668,1.066-1.47a16.96,16.96,0,0,0,.976-1.669,12.084,12.084,0,0,0,.734-1.759,6.921,6.921,0,0,0,.332-1.781,5.922,5.922,0,0,0-.089-1.426,3.883,3.883,0,0,0-1.619-2.448,4.728,4.728,0,0,0-2.643-.8,5.318,5.318,0,0,0-2.2.491,5.127,5.127,0,0,0-1.842,1.381,7.081,7.081,0,0,0-1.354,2.382,10.438,10.438,0,0,0-.556,2.738,10.026,10.026,0,0,0,.622,3.962,5.616,5.616,0,0,0,2.4,2.939,7.536,7.536,0,0,0,2.02.958,6.92,6.92,0,0,0,1.931.288,7.219,7.219,0,0,0,2.929-.622,12.763,12.763,0,0,0,2.708-1.625,20.108,20.108,0,0,0,2.42-2.227,30.721,30.721,0,0,0,2.064-2.47,13.509,13.509,0,0,0-4.617,1.246,6.84,6.84,0,0,0-3.019,2.762,1.524,1.524,0,0,1-.754.378,1.625,1.625,0,0,1-.755-.044,1.147,1.147,0,0,1-.578-.4,1,1,0,0,1-.177-.735Zm31.39-38.082a12.05,12.05,0,0,0,2.951-1.975,31.733,31.733,0,0,0,3.285-3.331,50.251,50.251,0,0,0,3.265-4.24,46.228,46.228,0,0,0,2.864-4.705,35.468,35.468,0,0,0,2.086-4.729,15.167,15.167,0,0,0,.911-4.329,6.761,6.761,0,0,0-.266-2.531,3,3,0,0,0-1.044-1.553,2.154,2.154,0,0,0-1.686-.31,4.873,4.873,0,0,0-2.2,1.2,16.959,16.959,0,0,0-3.707,4.752,41.579,41.579,0,0,0-2.641,6.014A56.1,56.1,0,0,0,146.2,21.4q-.71,3.2-1.243,5.727Z" transform="translate(56.872 0)" fill="#b34138"/>
      <path id="Path_2870" data-name="Path 2870" d="M137.461,24.222a6.814,6.814,0,0,0,.133-1.243,3.486,3.486,0,0,1,.089-.843.91.91,0,0,1,.71-.688,2.392,2.392,0,0,1,1.155.066,7.783,7.783,0,0,1,2.707,1.465,2.743,2.743,0,0,1,.845,2.086,6.876,6.876,0,0,1-.155,1.376q-.158.757-.423,1.643-.444,1.422-1,3.44t-1.088,4.263q-.534,2.243-.955,4.461t-.644,4.086q-.045.444-.067.955c-.014.34-.022.629-.022.865a8.269,8.269,0,0,0,.312,2.509q.31.955,1.066,1a2.309,2.309,0,0,0,1.442-.755,14.8,14.8,0,0,0,1.754-2q.933-1.241,1.909-2.818t1.955-3.285q.976-1.709,1.864-3.375t1.6-3.041c.384-.712.718-1.339,1-1.887a14.062,14.062,0,0,1,.777-1.354,1.681,1.681,0,0,1,.666-.223q.576,0,1.11.889l-.489.931q-.889,1.777-2,4.019t-2.42,4.528q-1.31,2.288-2.73,4.462a39.9,39.9,0,0,1-2.842,3.862,15.948,15.948,0,0,1-2.842,2.708,4.686,4.686,0,0,1-2.708,1.022,4.991,4.991,0,0,1-2.6-.622,4.776,4.776,0,0,1-1.686-1.708,7.645,7.645,0,0,1-.911-2.531,17.3,17.3,0,0,1-.266-3.13q0-.531.022-1.088t.067-1.088a46.364,46.364,0,0,1,1.509-8.547q1.154-4.194,2.531-8.412l.621-2.044Zm8.036-11.41a7.56,7.56,0,0,1,.688,1.621,4.057,4.057,0,0,1,.155,1.354,3.042,3.042,0,0,1-1.287,2.331,4.075,4.075,0,0,1-2.4.821,2.462,2.462,0,0,1-1.864-.865,3.664,3.664,0,0,1-.712-2.73,5.135,5.135,0,0,1,.312-1.444,5.772,5.772,0,0,1,.665-1.31,3.368,3.368,0,0,1,.955-.931,2.151,2.151,0,0,1,1.177-.356,2.306,2.306,0,0,1,1.177.356,3.665,3.665,0,0,1,1.132,1.154" transform="translate(75.295 6.413)" fill="#b34138"/>
      <path id="Path_2871" data-name="Path 2871" d="M160.3,12.46a24.065,24.065,0,0,1-.334,2.486q-.245,1.333-.555,2.842a30.76,30.76,0,0,1,3.752.223,13.125,13.125,0,0,1,3.329.843,9.128,9.128,0,0,1,2.73,1.71,8.218,8.218,0,0,1,1.953,2.774h-.044a.677.677,0,0,1-.133.754.647.647,0,0,1-.843.179,9.383,9.383,0,0,0-4.55-2.508,24.813,24.813,0,0,0-5.795-.644H158.7q-.444,2-.955,4T156.7,29.2l-.845,3.375-.133.577q-.31,1.154-.8,3.13t-.955,4.263q-.465,2.285-.8,4.594a29.426,29.426,0,0,0-.334,4.174,11.031,11.031,0,0,0,.2,2.241,1.973,1.973,0,0,0,.732,1.31,1.432,1.432,0,0,0,1.287.044,7.788,7.788,0,0,0,2.176-1.2,16.52,16.52,0,0,0,2.686-2.82,39.507,39.507,0,0,0,2.486-3.663q1.176-1.954,2.175-3.929t1.754-3.574h-.044q.621-1.244,1.132-2.2a10.936,10.936,0,0,1,1-1.575,1.257,1.257,0,0,1,.487-.044,1.075,1.075,0,0,1,1.02.843l-1.6,3.329h.044q-1.422,2.976-3.108,6.26a51.075,51.075,0,0,1-3.617,6.037,23,23,0,0,1-4.107,4.552,7.087,7.087,0,0,1-4.574,1.8q-3.952,0-5.506-1.953a8.573,8.573,0,0,1-1.553-5.461c0-.326.008-.65.022-.976s.038-.666.067-1.022q.134-1.509.621-4.128t1.155-5.749q.665-3.132,1.465-6.572t1.553-6.638l.621-2.53q-1.509.134-2.886.223T145.867,22a15.359,15.359,0,0,1-4.751-.665,4.588,4.588,0,0,1-2.886-2.487,2.309,2.309,0,0,1-.133-.511.874.874,0,0,1,.044-.487.477.477,0,0,1,.334-.266.844.844,0,0,1,.643.2l-.044-.044a11.15,11.15,0,0,0,2.907.8,23.265,23.265,0,0,0,3.263.221q1.6,0,3.418-.155t3.552-.332q.623-2.8,1.066-4.906t.533-3.041a6.948,6.948,0,0,0-.022-1.266q-.066-.51-.155-.955c-.03-.147-.052-.288-.067-.422a3.6,3.6,0,0,1-.022-.378.962.962,0,0,1,.555-.821,2.749,2.749,0,0,1,1.088-.2,6.128,6.128,0,0,1,2.776.533,4.007,4.007,0,0,1,1.6,1.4,4.643,4.643,0,0,1,.69,1.976,11.578,11.578,0,0,1,.044,2.263" transform="translate(78.343 3.569)" fill="#b34138"/>
      <path id="Path_2872" data-name="Path 2872" d="M179.855,38.671q-1.2,2.132-2.663,4.462a24.732,24.732,0,0,1-3.354,4.24,16.769,16.769,0,0,1-4.3,3.152A11.932,11.932,0,0,1,164,51.768a7.474,7.474,0,0,1-3.928-.976,7.707,7.707,0,0,1-2.621-2.6,11.63,11.63,0,0,1-1.444-3.729,21.594,21.594,0,0,1-.442-4.418V38.915a8.49,8.49,0,0,1,.088-1.176v.044a30.93,30.93,0,0,1,.889-5.039,34.3,34.3,0,0,1,1.708-4.973,30.1,30.1,0,0,1,2.42-4.528,21.014,21.014,0,0,1,3.042-3.707,13.719,13.719,0,0,1,3.55-2.509,8.937,8.937,0,0,1,3.929-.909,7.1,7.1,0,0,1,3.486.843,8.221,8.221,0,0,1,2.574,2.2,9.39,9.39,0,0,1,1.555,3.063,10.341,10.341,0,0,1,.422,3.486,9.421,9.421,0,0,1-1.774,4.574,17.331,17.331,0,0,1-3.641,3.685,22.553,22.553,0,0,1-4.6,2.663,25.468,25.468,0,0,1-4.729,1.555c-.116.5-.213,1.02-.287,1.553s-.143,1.1-.2,1.688a5.867,5.867,0,0,0-.044.732v.732a11.041,11.041,0,0,0,.157,1.887,5.234,5.234,0,0,0,.553,1.643,3.285,3.285,0,0,0,1.111,1.2,3.761,3.761,0,0,0,1.774.555,5.9,5.9,0,0,0,3.2-1.066,14.845,14.845,0,0,0,2.817-2.508,25.582,25.582,0,0,0,2.4-3.2q1.089-1.709,1.933-3.13v.045q1.063-1.867,1.973-3.663t1.668-3.263q.355-.665.8-1.511c.3-.561.561-1.05.8-1.464a2.7,2.7,0,0,1,.666-.223.867.867,0,0,1,.643.245,2.224,2.224,0,0,1,.422.6l-.442.976q-.8,1.646-1.976,3.931t-2.6,4.727m-3.418-15.982q-.665-1.288-1.6-1.288a3.052,3.052,0,0,0-1.842.8,12.225,12.225,0,0,0-2,2.088,31.488,31.488,0,0,0-1.976,2.886q-.978,1.6-1.754,3.2t-1.375,3.041a16.011,16.011,0,0,0-.821,2.376,14.046,14.046,0,0,0,3.5-.976,19.005,19.005,0,0,0,3.843-2.088,14.764,14.764,0,0,0,3.172-2.975,6.815,6.815,0,0,0,1.509-3.685,6.106,6.106,0,0,0-.665-3.373" transform="translate(88.264 9.145)" fill="#b34138"/>
    </g>
  </g>
</svg>
